<?xml version="1.0" standalone="no"?>
<!DOCTYPE svg PUBLIC "-//W3C//DTD SVG 20010904//EN"
 "http://www.w3.org/TR/2001/REC-SVG-20010904/DTD/svg10.dtd">
<svg version="1.0" xmlns="http://www.w3.org/2000/svg"
 width="275.000000pt" height="229.000000pt" viewBox="0 0 275.000000 229.000000"
 preserveAspectRatio="xMidYMid meet">
<metadata>
Created by potrace 1.10, written by Peter Selinger 2001-2011
</metadata>
<g transform="translate(0.000000,229.000000) scale(0.100000,-0.100000)"
fill="#000000" stroke="none">
<path d="M1265 2122 c-80 -5 -243 -51 -325 -91 -34 -17 -105 -56 -110 -61 -3
-3 -23 -18 -45 -35 -22 -16 -49 -37 -59 -47 -11 -10 -26 -18 -33 -18 -7 0 -12
-4 -11 -8 3 -8 -59 -85 -102 -130 -34 -35 -122 -217 -149 -307 -44 -151 -51
-276 -26 -435 15 -93 48 -205 66 -225 5 -5 9 -19 9 -32 0 -13 7 -26 15 -29 8
-4 13 -10 10 -14 -3 -4 2 -13 10 -20 8 -7 15 -19 15 -26 0 -8 3 -14 8 -14 4 0
13 -12 19 -27 7 -16 30 -47 52 -70 21 -24 37 -43 34 -43 -8 0 71 -70 115 -102
23 -17 42 -35 42 -39 0 -4 11 -10 25 -13 14 -4 23 -11 20 -17 -4 -5 -3 -9 2
-8 11 3 43 -11 73 -31 44 -31 240 -91 324 -100 211 -22 345 -2 529 79 26 12
53 18 59 15 7 -4 8 -3 4 4 -4 7 2 16 16 22 49 22 113 64 131 87 10 12 25 23
33 23 8 0 12 5 9 10 -3 6 -2 10 3 10 5 0 19 9 32 20 12 11 26 18 30 15 3 -2 7
1 7 8 0 7 25 47 56 89 32 42 57 81 57 86 0 5 7 15 15 22 8 7 15 20 15 29 0 9
5 22 12 29 22 22 66 166 88 289 17 95 7 273 -21 373 -12 41 -22 80 -23 85 -4
21 -88 187 -117 229 -40 61 -166 194 -198 211 -40 21 -72 55 -64 68 4 7 0 6
-10 -2 -9 -7 -17 -9 -17 -4 0 5 -12 15 -27 22 -16 7 -28 12 -28 11 0 -1 -22 9
-50 23 -145 72 -321 102 -520 89z m359 -47 c176 -51 280 -110 407 -232 286
-274 374 -676 230 -1049 -45 -116 -134 -246 -234 -341 -296 -279 -726 -341
-1092 -158 -108 54 -135 74 -245 185 -131 130 -201 252 -252 436 -18 66 -22
105 -22 239 1 145 3 168 27 248 53 172 115 282 227 401 144 153 300 240 510
287 123 28 321 21 444 -16z"/>
<path d="M1067 1543 c-14 -25 -59 -263 -54 -285 10 -39 53 -85 92 -100 l35
-12 0 -188 c0 -181 1 -188 21 -199 16 -8 28 -8 45 0 l24 11 0 189 0 189 30 7
c37 8 87 65 95 107 4 21 -4 80 -22 158 -24 109 -31 125 -48 125 -19 0 -20 -8
-23 -122 -2 -97 -6 -123 -17 -123 -9 0 -15 17 -19 53 -3 28 -9 84 -13 122 -7
61 -11 70 -28 70 -21 0 -22 -3 -41 -192 -4 -36 -10 -53 -19 -53 -11 0 -15 26
-17 122 -3 105 -5 123 -20 126 -9 2 -18 -1 -21 -5z m36 -250 c8 -12 49 -14 41
-2 -2 4 0 10 5 13 12 8 21 59 22 132 1 34 5 67 9 74 8 13 24 -104 25 -177 0
-22 3 -39 7 -37 4 3 16 -1 27 -8 11 -7 22 -10 25 -7 3 3 8 42 10 87 3 45 8 87
11 92 4 6 2 17 -4 24 -8 9 -7 13 4 13 8 0 16 -7 17 -16 2 -24 3 -29 22 -114
19 -81 13 -145 -12 -140 -6 2 -9 -3 -6 -11 3 -7 -3 -16 -13 -20 -39 -13 -78
-43 -79 -62 0 -10 -1 -95 -2 -187 -2 -142 -4 -169 -18 -174 -34 -13 -39 14
-40 200 l0 181 -50 27 c-27 15 -49 33 -49 41 0 7 -6 18 -14 24 -13 10 -12 85
3 124 3 8 8 26 10 40 3 14 11 48 18 75 l13 50 5 -115 c3 -63 8 -120 13 -127z"/>
<path d="M1602 1529 c-23 -12 -58 -40 -78 -62 -52 -62 -66 -123 -62 -278 l3
-131 33 -29 c24 -22 42 -29 72 -29 l40 0 0 -109 c0 -86 3 -113 16 -125 21 -21
47 -20 67 2 15 17 17 58 17 385 0 319 -2 368 -16 381 -21 21 -41 20 -92 -5z
m86 -376 c2 -364 2 -372 -18 -378 -36 -11 -41 3 -39 113 2 118 -2 125 -69 136
-74 11 -77 17 -79 177 -2 92 1 147 8 156 6 7 9 13 5 13 -12 0 24 60 62 101 24
25 48 41 64 42 14 1 24 6 21 10 -3 5 5 7 18 5 l24 -3 3 -372z"/>
</g>
</svg>
